<?xml version="1.0" standalone="no"?>
<!DOCTYPE svg PUBLIC "-//W3C//DTD SVG 20010904//EN"
 "http://www.w3.org/TR/2001/REC-SVG-20010904/DTD/svg10.dtd">
<svg version="1.0" xmlns="http://www.w3.org/2000/svg"
 width="697.000000pt" height="697.000000pt" viewBox="0 0 697.000000 697.000000"
 preserveAspectRatio="xMidYMid meet">
<metadata>
Created by potrace 1.11, written by Peter Selinger 2001-2013
</metadata>
<g transform="translate(0.000000,697.000000) scale(0.100000,-0.100000)"
fill="#000000" stroke="none">
<path d="M3185 5839 c-294 -19 -352 -25 -500 -54 -100 -19 -160 -38 -255 -82
-41 -20 -138 -60 -215 -91 -193 -75 -336 -144 -366 -174 l-26 -26 -179 23
c-98 13 -211 26 -250 29 -93 9 -155 19 -289 49 -60 14 -135 28 -165 31 -89 11
-245 9 -267 -3 -43 -22 -39 -98 15 -271 81 -260 149 -450 197 -554 26 -57 26
-60 11 -95 -34 -75 -24 -192 28 -356 14 -44 26 -82 26 -84 0 -2 -42 -2 -94 1
-77 4 -102 10 -141 32 -60 33 -90 33 -111 0 -56 -85 28 -249 168 -328 l60 -34
-131 -77 c-130 -78 -191 -126 -191 -150 0 -18 22 -39 89 -84 111 -76 202 -110
308 -116 l68 -4 0 -99 c0 -81 3 -104 18 -119 9 -11 15 -22 12 -24 -2 -3 -6
-23 -9 -44 -21 -172 -27 -222 -33 -305 -13 -154 -10 -559 4 -605 11 -35 20
-44 70 -69 68 -33 149 -60 234 -78 72 -15 73 -16 157 -183 96 -193 147 -251
332 -385 197 -142 208 -147 560 -231 118 -28 274 -67 345 -86 72 -20 162 -42
200 -49 97 -17 180 -41 221 -64 19 -11 46 -22 62 -25 15 -3 38 -7 52 -10 97
-19 416 -25 540 -10 25 3 51 6 58 7 6 1 12 5 12 10 0 5 4 7 9 4 5 -4 11 -2 13
4 2 8 118 36 223 53 17 3 89 19 160 36 72 16 227 44 345 61 258 37 324 53 539
132 166 60 251 100 251 118 0 6 7 10 15 10 117 0 576 501 724 790 66 127 134
374 176 640 3 19 8 42 10 50 9 31 46 257 53 320 10 89 9 682 -1 803 -9 120
-32 255 -54 322 -31 97 -109 239 -198 360 -28 39 -73 111 -99 162 -58 111
-148 209 -281 304 -196 139 -576 348 -782 430 -159 63 -456 140 -693 179 -114
19 -161 20 -525 18 -220 -1 -449 -5 -510 -9z m-2194 -1991 c-6 -16 -17 -23
-35 -23 -14 -1 -26 0 -26 1 0 2 63 44 67 44 1 0 -1 -10 -6 -22z m-8 -137 c-3
-13 -11 -17 -24 -14 -18 5 -19 6 -2 19 25 19 32 17 26 -5z m-253 -26 c-7 -8
-20 -15 -29 -15 -11 1 -8 5 9 15 32 18 35 18 20 0z m-50 -105 c0 -5 -4 -10
-10 -10 -5 0 -10 5 -10 10 0 6 5 10 10 10 6 0 10 -4 10 -10z m303 -70 c-3 -11
-9 -17 -15 -14 -5 3 -4 12 3 20 16 19 18 18 12 -6z m4930 -264 c4 -10 1 -13
-8 -9 -8 3 -12 9 -9 14 7 12 11 11 17 -5z m-4098 -125 c3 -5 1 -12 -5 -16 -5
-3 -10 1 -10 9 0 18 6 21 15 7z m195 -107 c0 -8 -5 -12 -10 -9 -6 4 -8 11 -5
16 9 14 15 11 15 -7z m-568 -656 c-6 -6 -9 0 -9 18 0 23 1 24 9 10 7 -12 7
-21 0 -28z m2215 -1214 c-3 -3 -12 -4 -19 -1 -8 3 -5 6 6 6 11 1 17 -2 13 -5z"/>
</g>
</svg>
